<svg xmlns="http://www.w3.org/2000/svg" width="491" height="417" viewBox="0 0 491 417">
<g>
<path d="M 259.64 372.88 C242.11,391.10 227.47,406.00 227.11,406.00 C226.52,406.00 210.76,389.59 171.75,348.37 L 161.00 337.02 L 161.00 301.01 C161.00,281.20 161.16,265.00 161.35,265.00 C161.55,265.00 176.70,280.77 195.02,300.04 C213.35,319.31 228.85,334.95 229.48,334.79 C230.10,334.63 244.53,319.95 261.55,302.16 L 292.50 269.83 L 292.76 303.48 C292.91,321.99 292.68,337.72 292.26,338.45 C291.84,339.17 277.16,354.66 259.64,372.88 ZM 108.24 182.12 C110.03,182.46 88.85,182.80 61.17,182.87 C32.19,182.94 10.97,182.62 11.17,182.11 C11.35,181.62 24.77,167.41 41.00,150.52 C57.22,133.63 74.51,115.46 79.40,110.15 C84.30,104.84 95.90,92.29 105.19,82.25 L 122.08 64.00 L 142.00 64.00 L 142.00 66.55 C142.00,67.95 141.34,70.37 140.54,71.93 C139.73,73.48 138.84,77.20 138.55,80.18 C138.26,83.17 137.31,87.84 136.43,90.56 C135.56,93.28 134.25,98.12 133.53,101.31 C132.32,106.71 132.36,107.26 134.14,108.92 C136.27,110.90 145.78,111.97 161.50,112.01 C166.45,112.02 171.06,112.38 171.74,112.82 C172.58,113.35 162.08,124.49 138.98,147.55 L 104.98 181.50 ZM 359.37 270.75 C357.55,277.54 357.00,269.60 357.02,236.75 C357.03,202.23 357.89,190.14 359.35,204.08 C360.17,211.89 360.18,267.71 359.37,270.75 ZM 239.42 56.39 C238.55,56.73 232.07,57.00 225.03,57.00 C214.56,57.00 212.11,56.73 211.64,55.50 C211.14,54.21 213.14,54.00 226.03,54.00 C239.63,54.00 243.74,54.74 239.42,56.39 ZM 366.87 246.25 C366.95,257.50 366.63,264.00 366.00,264.00 C365.35,264.00 365.06,252.70 365.18,231.75 C365.32,204.71 365.46,201.84 366.05,214.00 C366.43,221.98 366.81,236.49 366.87,246.25 ZM 374.98 235.75 C374.99,248.59 374.63,256.00 374.00,256.00 C373.36,256.00 373.01,248.09 373.02,234.25 C373.03,219.84 373.36,213.01 374.00,214.00 C374.54,214.84 374.98,224.40 374.98,235.75 ZM 237.50 48.00 C237.89,48.63 235.51,49.00 231.06,49.00 C227.02,49.00 224.00,48.57 224.00,48.00 C224.00,47.44 226.81,47.00 230.44,47.00 C233.98,47.00 237.16,47.45 237.50,48.00 Z" fill="rgb(44,138,230)"/>
<path d="M 108.24 182.12 L 104.98 181.50 L 138.98 147.55 C162.08,124.49 172.58,113.35 171.74,112.82 C171.06,112.38 166.45,112.02 161.50,112.01 C155.99,112.00 151.25,111.86 147.31,111.59 C161.01,111.91 200.26,112.33 244.25,112.60 C296.91,112.93 340.00,113.40 340.00,113.66 C340.00,114.23 331.30,133.77 322.48,153.00 C310.83,178.42 304.00,193.93 304.00,194.98 C304.00,197.02 302.41,195.94 297.78,190.77 L 293.06 185.50 L 293.03 261.87 L 293.00 338.23 L 282.23 349.37 C280.27,351.40 277.33,354.45 273.84,358.07 C284.45,346.94 291.96,338.96 292.26,338.45 C292.68,337.72 292.91,321.99 292.76,303.48 L 292.50 269.83 L 261.55 302.16 C244.53,319.95 230.10,334.63 229.48,334.79 C228.85,334.95 213.35,319.31 195.02,300.04 C176.70,280.77 161.55,265.00 161.35,265.00 C161.16,265.00 161.00,281.20 161.00,301.01 L 161.00 183.00 L 85.92 183.00 C70.53,183.00 56.62,182.95 45.09,182.87 C50.08,182.88 55.47,182.88 61.17,182.87 C88.85,182.80 110.03,182.46 108.24,182.12 ZM 233.85 273.25 L 237.41 278.00 L 247.71 278.00 C253.37,278.00 258.00,277.74 258.00,277.43 C258.00,276.91 251.94,268.54 224.51,231.20 C218.73,223.33 214.00,216.70 214.00,216.45 C214.00,216.20 215.49,216.00 217.32,216.00 C225.54,216.00 236.93,211.02 244.15,204.26 C250.09,198.70 252.73,194.56 255.03,187.16 L 256.80 181.50 L 270.26 181.50 L 273.57 174.25 L 276.88 167.00 L 266.69 166.97 L 256.50 166.94 L 252.96 159.47 L 249.43 152.00 L 273.08 152.00 L 276.04 145.41 C277.67,141.78 279.00,138.63 279.00,138.40 C279.00,138.17 259.79,138.10 236.31,138.24 L 193.62 138.50 L 191.25 144.40 C189.36,149.12 189.14,150.47 190.19,151.14 C190.91,151.60 197.63,151.98 205.12,151.98 C214.81,152.00 220.01,152.45 223.12,153.54 C227.87,155.22 233.33,159.90 235.61,164.25 L 237.05 167.00 L 194.09 167.00 L 192.02 171.69 C190.88,174.28 189.68,177.43 189.36,178.69 L 188.78 181.00 L 212.89 181.00 C231.52,181.00 237.00,181.28 236.98,182.25 C236.92,185.28 232.94,191.90 229.44,194.79 C223.89,199.36 218.00,201.01 204.75,201.70 L 193.00 202.31 L 193.00 218.07 L 202.59 231.12 C211.57,243.35 225.75,262.45 233.85,273.25 ZM 366.90 223.25 C366.92,231.37 366.90,238.33 366.86,244.09 C366.75,234.45 366.41,221.41 366.05,214.00 C365.46,201.84 365.32,204.71 365.18,231.75 C365.16,234.81 365.15,237.66 365.15,240.31 C364.96,217.91 365.24,187.37 366.00,185.00 C366.44,183.62 366.85,200.84 366.90,223.25 ZM 227.08 406.00 C227.08,406.00 227.07,406.00 227.07,406.00 C226.62,406.00 215.85,394.87 191.13,368.83 C215.79,394.81 226.38,405.74 227.08,406.00 ZM 239.93 393.22 C236.58,396.65 233.68,399.59 231.48,401.79 C233.65,399.62 236.53,396.70 239.93,393.22 ZM 134.16 108.93 C134.15,108.93 134.15,108.92 134.14,108.92 C133.34,108.17 132.89,107.64 132.75,106.80 C132.89,107.64 133.34,108.17 134.16,108.93 Z" fill="rgb(29,35,43)"/>
<path d="M 366.90 223.25 C366.85,200.84 366.44,183.62 366.00,185.00 C365.24,187.37 364.96,217.91 365.15,240.31 C365.15,255.61 365.44,263.84 365.98,264.00 C365.98,264.00 365.97,264.00 365.97,264.00 C365.28,264.00 364.97,250.81 365.03,223.90 C365.09,201.84 364.94,183.60 364.70,183.37 C364.47,183.13 363.22,185.32 361.93,188.22 C359.97,192.64 359.65,193.40 359.78,215.27 C359.67,209.91 359.53,205.81 359.35,204.08 C357.89,190.14 357.03,202.23 357.02,236.75 C357.00,261.39 357.31,272.02 358.23,272.92 C358.13,272.98 358.02,273.00 357.90,273.00 C357.42,273.00 356.91,256.61 356.76,236.47 L 356.50 199.94 L 348.62 217.97 C344.29,227.89 340.39,236.00 339.95,236.00 C339.51,236.00 338.20,234.79 337.04,233.32 C335.88,231.85 325.61,220.62 314.21,208.37 L 301.16 194.34 C303.22,196.30 304.00,196.41 304.00,194.98 C304.00,193.93 310.83,178.42 322.48,153.00 C331.30,133.77 340.00,114.23 340.00,113.66 C340.00,113.40 296.91,112.93 244.25,112.60 C200.26,112.33 161.01,111.91 147.31,111.59 C140.05,111.11 135.55,110.21 134.16,108.93 C133.34,108.17 132.89,107.64 132.75,106.80 L 132.75 106.80 C132.58,105.77 132.87,104.27 133.53,101.31 C134.25,98.12 135.56,93.28 136.43,90.56 C137.31,87.84 138.26,83.17 138.55,80.18 C138.84,77.20 139.73,73.48 140.54,71.93 C141.34,70.37 142.00,67.95 142.00,66.55 L 142.00 64.00 L 124.19 64.00 C132.60,63.32 166.19,63.37 303.23,63.17 L 418.96 63.00 L 419.59 60.50 C419.93,59.12 420.62,58.00 421.11,58.00 C421.62,58.00 422.00,88.50 422.00,130.00 C422.00,194.64 421.70,204.55 419.83,201.75 C419.74,201.61 419.40,170.90 419.08,133.50 L 418.50 65.50 L 416.27 70.00 L 414.04 74.50 L 414.02 142.69 C414.01,186.72 413.65,211.10 413.01,211.50 C412.35,211.90 411.93,189.54 411.76,146.30 L 411.50 80.50 L 408.75 86.28 L 406.00 92.06 L 406.00 156.03 C406.00,198.01 405.66,220.00 405.00,220.00 C404.34,220.00 403.99,199.74 403.98,161.25 C403.98,128.94 403.61,101.94 403.17,101.24 C402.62,100.38 401.78,101.15 400.44,103.74 C398.60,107.32 398.49,110.47 398.19,168.77 C398.00,206.56 397.52,229.82 396.94,229.46 C396.37,229.11 395.97,206.11 395.92,171.69 L 395.84 114.50 L 391.03 124.50 L 391.01 181.25 C391.00,230.87 390.81,238.00 389.51,238.00 C388.21,238.00 387.98,231.22 387.76,185.25 L 387.50 132.50 L 385.27 137.00 C383.07,141.45 383.04,142.04 382.84,190.50 C382.67,232.08 382.53,236.17 381.94,217.50 C381.56,205.40 381.14,186.27 381.01,175.00 C380.87,163.73 380.47,153.15 380.12,151.50 C379.49,148.53 379.45,148.56 377.24,153.88 C375.03,159.21 375.00,159.82 375.00,207.63 C375.00,215.82 374.98,223.02 374.93,229.18 C374.80,220.91 374.43,214.67 374.00,214.00 C373.47,213.17 373.15,217.75 373.05,227.60 C373.02,222.49 373.00,216.72 373.00,210.30 C373.00,185.16 372.63,165.03 372.17,165.55 C371.71,166.07 370.36,168.92 369.17,171.88 C367.06,177.12 367.00,178.47 367.00,220.63 C367.00,230.92 366.96,239.36 366.87,245.96 C366.87,245.35 366.86,244.73 366.86,244.09 C366.90,238.33 366.92,231.37 366.90,223.25 ZM 437.44 177.75 C437.12,180.64 436.44,183.00 435.93,183.00 C435.37,183.00 435.00,155.19 435.00,112.50 L 435.00 42.00 L 336.03 42.00 C248.33,42.00 237.13,41.83 237.64,40.50 C238.15,39.17 249.91,39.02 337.86,39.25 L 437.50 39.50 L 437.77 106.00 C437.91,142.57 437.77,174.86 437.44,177.75 ZM 468.76 66.94 C468.90,97.98 468.65,123.75 468.19,124.21 C467.74,124.66 467.06,124.73 466.68,124.35 C466.31,123.97 466.00,98.77 466.00,68.33 L 466.00 13.00 L 378.00 13.00 C300.30,13.00 290.00,12.82 290.00,11.49 C290.00,10.16 300.33,10.02 379.25,10.24 L 468.50 10.50 ZM 237.50 48.00 C237.37,47.79 236.84,47.60 236.04,47.44 C251.59,47.15 282.10,47.00 327.01,47.00 L 430.01 47.00 L 429.76 119.67 C429.56,176.73 429.23,192.42 428.25,192.75 C427.26,193.08 427.00,178.31 427.00,121.08 L 427.00 49.00 L 325.50 49.00 C282.20,49.00 252.47,48.86 236.86,48.58 C237.42,48.42 237.64,48.23 237.50,48.00 ZM 461.00 82.44 C461.00,124.32 460.65,147.10 460.00,147.50 C459.91,147.56 459.83,147.64 459.75,147.71 C459.64,147.82 459.55,147.91 459.46,147.90 C458.79,147.82 458.83,141.16 458.67,81.50 L 458.50 20.50 L 367.25 20.24 C307.58,20.08 276.00,19.65 276.00,18.99 C276.00,18.34 307.83,18.00 368.50,18.00 L 461.00 18.00 ZM 445.00 102.00 C445.00,148.00 444.66,172.00 444.00,172.00 C443.34,172.00 443.00,148.33 443.00,103.00 L 443.00 34.00 L 346.50 34.00 C282.83,34.00 250.00,33.66 250.00,33.00 C250.00,32.34 283.17,32.00 347.50,32.00 L 445.00 32.00 ZM 453.00 93.00 C453.00,137.67 452.66,161.00 452.00,161.00 C451.34,161.00 451.00,138.74 450.99,96.25 C450.98,60.64 450.70,30.49 450.37,29.25 L 449.77 27.00 L 356.38 27.00 C294.79,27.00 263.00,26.66 263.00,26.00 C263.00,25.34 295.33,25.00 358.00,25.00 L 453.00 25.00 ZM 239.42 56.39 C242.52,55.20 241.27,54.49 235.27,54.18 C250.77,54.03 275.98,54.00 316.53,54.00 C409.61,54.00 422.00,54.18 422.00,55.50 C422.00,56.82 409.68,57.00 317.11,57.00 C275.74,57.00 250.36,56.96 234.92,56.81 C237.32,56.70 239.00,56.55 239.42,56.39 ZM 293.03 257.34 L 293.06 185.50 L 296.27 189.08 L 293.50 186.10 ZM 111.94 74.96 L 105.19 82.25 C95.90,92.29 84.30,104.84 79.40,110.15 C74.51,115.46 57.22,133.63 41.00,150.52 C26.17,165.95 13.69,179.15 11.50,181.69 C13.69,179.15 26.17,165.94 41.00,150.51 C57.22,133.61 81.34,108.02 94.60,93.64 C101.07,86.62 107.21,80.01 111.94,74.96 ZM 272.93 359.02 C273.23,358.70 273.54,358.38 273.84,358.07 C277.33,354.45 280.27,351.40 282.23,349.37 L 292.50 338.75 L 292.50 338.88 L 281.97 349.69 C279.90,351.81 276.72,355.10 272.93,359.02 ZM 359.69 265.94 C359.86,260.81 359.95,252.25 359.97,243.09 C360.01,254.23 359.94,261.42 359.69,265.94 ZM 121.69 64.42 L 121.30 64.84 C121.31,64.82 121.31,64.80 121.32,64.79 C121.37,64.65 121.45,64.53 121.69,64.42 Z" fill="rgb(232,107,108)"/>
<path d="M 0.00 208.50 L 0.00 0.00 L 245.50 0.00 L 491.00 0.00 L 491.00 208.50 L 491.00 417.00 L 245.50 417.00 L 0.00 417.00 L 0.00 208.50 ZM 249.57 383.25 C261.60,370.74 276.18,355.64 281.97,349.69 L 292.50 338.88 L 293.00 262.49 L 293.50 186.10 L 314.21 208.37 C325.61,220.62 335.88,231.85 337.04,233.32 C338.20,234.79 339.51,236.00 339.95,236.00 C340.39,236.00 344.29,227.89 348.62,217.97 L 356.50 199.94 L 356.76 236.47 C356.91,256.61 357.42,273.00 357.90,273.00 C359.85,273.00 360.18,265.95 359.89,230.50 C359.59,193.56 359.59,193.49 361.93,188.22 C363.22,185.32 364.47,183.13 364.70,183.37 C364.94,183.60 365.09,201.84 365.03,223.90 C364.97,250.81 365.28,264.00 365.97,264.00 C366.66,264.00 367.00,249.73 367.00,220.63 C367.00,178.47 367.06,177.12 369.17,171.88 C370.36,168.92 371.71,166.07 372.17,165.55 C372.63,165.03 373.00,185.16 373.00,210.30 C373.00,240.10 373.35,256.00 374.00,256.00 C374.65,256.00 375.00,239.21 375.00,207.63 C375.00,159.82 375.03,159.21 377.24,153.88 C379.45,148.56 379.49,148.53 380.12,151.50 C380.47,153.15 380.87,163.73 381.01,175.00 C381.14,186.27 381.56,205.40 381.94,217.50 C382.53,236.17 382.67,232.08 382.84,190.50 C383.04,142.04 383.07,141.45 385.27,137.00 L 387.50 132.50 L 387.76 185.25 C387.98,231.22 388.21,238.00 389.51,238.00 C390.81,238.00 391.00,230.87 391.01,181.25 L 391.03 124.50 L 393.43 119.50 L 395.84 114.50 L 395.92 171.69 C395.97,206.11 396.37,229.11 396.94,229.46 C397.52,229.82 398.00,206.56 398.19,168.77 C398.49,110.47 398.60,107.32 400.44,103.74 C401.78,101.15 402.62,100.38 403.17,101.24 C403.61,101.94 403.98,128.94 403.98,161.25 C403.99,199.74 404.34,220.00 405.00,220.00 C405.66,220.00 406.00,198.01 406.00,156.03 L 406.00 92.06 L 408.75 86.28 L 411.50 80.50 L 411.76 146.30 C411.93,189.54 412.35,211.90 413.01,211.50 C413.65,211.10 414.01,186.72 414.02,142.69 L 414.04 74.50 L 416.27 70.00 L 418.50 65.50 L 419.08 133.50 C419.40,170.90 419.74,201.61 419.83,201.75 C421.70,204.55 422.00,194.64 422.00,130.00 C422.00,88.50 421.62,58.00 421.11,58.00 C420.62,58.00 419.93,59.12 419.59,60.50 L 418.96 63.00 L 303.23 63.17 C103.44,63.47 123.54,63.21 120.95,65.50 C119.71,66.60 107.85,79.27 94.60,93.64 C81.34,108.02 57.22,133.61 41.00,150.51 C24.77,167.40 11.35,181.62 11.17,182.11 C10.97,182.62 42.58,183.00 85.92,183.00 L 161.00 183.00 L 161.00 260.01 L 161.00 337.02 L 171.75 348.37 C210.33,389.14 226.52,406.00 227.07,406.00 C227.41,406.00 237.54,395.76 249.57,383.25 ZM 429.76 119.67 L 430.01 47.00 L 327.01 47.00 C259.00,47.00 224.00,47.34 224.00,48.00 C224.00,48.66 258.50,49.00 325.50,49.00 L 427.00 49.00 L 427.00 121.08 C427.00,178.31 427.26,193.08 428.25,192.75 C429.23,192.42 429.56,176.73 429.76,119.67 ZM 437.44 177.75 C437.77,174.86 437.91,142.57 437.77,106.00 L 437.50 39.50 L 337.86 39.25 C249.91,39.02 238.15,39.17 237.64,40.50 C237.13,41.83 248.33,42.00 336.03,42.00 L 435.00 42.00 L 435.00 112.50 C435.00,155.19 435.37,183.00 435.93,183.00 C436.44,183.00 437.12,180.64 437.44,177.75 ZM 445.00 102.00 L 445.00 32.00 L 347.50 32.00 C283.17,32.00 250.00,32.34 250.00,33.00 C250.00,33.66 282.83,34.00 346.50,34.00 L 443.00 34.00 L 443.00 103.00 C443.00,148.33 443.34,172.00 444.00,172.00 C444.66,172.00 445.00,148.00 445.00,102.00 ZM 453.00 93.00 L 453.00 25.00 L 358.00 25.00 C295.33,25.00 263.00,25.34 263.00,26.00 C263.00,26.66 294.79,27.00 356.38,27.00 L 449.77 27.00 L 450.37 29.25 C450.70,30.49 450.98,60.64 450.99,96.25 C451.00,138.74 451.34,161.00 452.00,161.00 C452.66,161.00 453.00,137.67 453.00,93.00 ZM 461.00 82.44 L 461.00 18.00 L 368.50 18.00 C307.83,18.00 276.00,18.34 276.00,18.99 C276.00,19.65 307.58,20.08 367.25,20.24 L 458.50 20.50 L 458.67 81.50 C458.87,153.80 458.76,148.27 460.00,147.50 C460.65,147.10 461.00,124.32 461.00,82.44 ZM 468.76 66.94 L 468.50 10.50 L 379.25 10.24 C300.33,10.02 290.00,10.16 290.00,11.49 C290.00,12.82 300.30,13.00 378.00,13.00 L 466.00 13.00 L 466.00 68.33 C466.00,98.77 466.31,123.97 466.68,124.35 C467.06,124.73 467.74,124.66 468.19,124.21 C468.65,123.75 468.90,97.98 468.76,66.94 ZM 422.00 55.50 C422.00,54.18 409.61,54.00 316.53,54.00 C223.19,54.00 211.13,54.17 211.64,55.50 C212.14,56.82 224.79,57.00 317.11,57.00 C409.68,57.00 422.00,56.82 422.00,55.50 ZM 233.85 273.25 C225.75,262.45 211.57,243.35 202.59,231.12 L 193.00 218.07 L 193.00 210.19 L 193.00 202.31 L 204.75 201.70 C218.00,201.01 223.89,199.36 229.44,194.79 C232.94,191.90 236.92,185.28 236.98,182.25 C237.00,181.28 231.52,181.00 212.89,181.00 L 188.78 181.00 L 189.36 178.69 C189.68,177.43 190.88,174.28 192.02,171.69 L 194.09 167.00 L 215.57 167.00 L 237.05 167.00 L 235.61 164.25 C233.33,159.90 227.87,155.22 223.12,153.54 C220.01,152.45 214.81,152.00 205.12,151.98 C197.63,151.98 190.91,151.60 190.19,151.14 C189.14,150.47 189.36,149.12 191.25,144.40 L 193.62 138.50 L 236.31 138.24 C259.79,138.10 279.00,138.17 279.00,138.40 C279.00,138.63 277.67,141.78 276.04,145.41 L 273.08 152.00 L 261.26 152.00 L 249.43 152.00 L 252.96 159.47 L 256.50 166.94 L 266.69 166.97 L 276.88 167.00 L 273.57 174.25 L 270.26 181.50 L 263.53 181.50 L 256.80 181.50 L 255.03 187.16 C252.73,194.56 250.09,198.70 244.15,204.26 C236.93,211.02 225.54,216.00 217.32,216.00 C215.49,216.00 214.00,216.20 214.00,216.45 C214.00,216.70 218.73,223.33 224.51,231.20 C251.94,268.54 258.00,276.91 258.00,277.43 C258.00,277.74 253.37,278.00 247.71,278.00 L 237.41 278.00 L 233.85 273.25 Z" fill="rgb(254,253,252)"/>
</g>
</svg>